<svg xmlns="http://www.w3.org/2000/svg" viewBox="0 0 614.02 637.88"><defs><style>.cls-1{fill:#04bc8c;}.cls-2{fill:#fdca40;}.cls-3{fill:#6f64e7;}.cls-4{fill:#fff;}</style></defs><title>V on Black</title><g id="Layer_2" data-name="Layer 2"><g id="Layer_1-2" data-name="Layer 1"><polygon class="cls-1" points="339.35 104 339.35 190.52 158.03 190.52 158.03 0 248.96 0 248.96 104 339.35 104"/><rect class="cls-2" x="158.03" y="214.93" width="65.43" height="99.65"/><polygon class="cls-3" points="457.5 0 457.5 314.57 247.41 314.57 247.41 214.93 363.31 214.93 363.31 79.59 272.92 79.59 272.92 0 457.5 0"/><path class="cls-4" d="M89.77,413.49v90.14q0,20.93-11.79,32.25T46.2,547.19q-20.93,0-33.57-11.88T0,501.55H32.06q0,8.31,3.39,12.55c2.27,2.82,5.53,4.24,9.81,4.24q5.85,0,9.05-3.77t3.21-10.94V413.49Z"/><path class="cls-4" d="M148,413.49V545.87H115.79V413.49Z"/><path class="cls-4" d="M259.3,455.35A24.18,24.18,0,0,0,249,445.26a33.68,33.68,0,0,0-15.74-3.49q-15.66,0-25.09,10.28t-9.43,27.44q0,18.3,9.91,28.57t27.25,10.28q11.88,0,20.08-6T268,495H227.05V471.19h70.16v30A63.3,63.3,0,0,1,285,523.62a64,64,0,0,1-21.78,16.78,67.24,67.24,0,0,1-29.8,6.41q-19.61,0-35-8.58a61.1,61.1,0,0,1-23.95-23.85Q166,499.11,166,479.49t8.58-35a61.06,61.06,0,0,1,23.86-23.95Q213.66,412,233.28,412q23.76,0,40.07,11.5t21.59,31.87Z"/><path class="cls-4" d="M413.75,489.39a32.42,32.42,0,0,1,7,20.46q0,16.6-11.6,26.31t-32.34,9.71H315.12V413.49h59.59q20.18,0,31.59,9.24t11.41,25.08q0,11.7-6.13,19.42A31.66,31.66,0,0,1,395.27,478,30.84,30.84,0,0,1,413.75,489.39ZM347.37,467h21.12q7.92,0,12.16-3.49t4.24-10.27q0-6.79-4.24-10.37t-12.16-3.59H347.37Zm36.3,49.13q4.43-3.67,4.43-10.66t-4.62-10.93q-4.62-4-12.73-4H347.37v29.23h23.76Q379.23,519.85,383.67,516.17Z"/><path class="cls-4" d="M471.64,413.49V545.87H439.4V413.49Z"/><path class="cls-4" d="M581.21,421.78a59.38,59.38,0,0,1,24.23,23.29q8.58,15,8.58,34.61,0,19.43-8.58,34.51a59,59,0,0,1-24.32,23.38q-15.75,8.31-36.49,8.3H495V413.49h49.6Q565.56,413.49,581.21,421.78ZM571,508q10.19-10,10.18-28.29T571,451.2Q560.85,441,542.55,441H527.28V518h15.27Q560.84,518,571,508Z"/><path class="cls-4" d="M37.07,608.11l-3.18,3.08a16.19,16.19,0,0,0-4.57-3.52,11.57,11.57,0,0,0-5-1,12.46,12.46,0,0,0-9.32,3.9,14,14,0,0,0,0,19.14,12.47,12.47,0,0,0,9.29,3.9,11.57,11.57,0,0,0,5-1A17.47,17.47,0,0,0,34,628.89L37.22,632a21.24,21.24,0,0,1-6.11,4.47,16,16,0,0,1-6.72,1.39,17.15,17.15,0,0,1-12.62-5.19,17.89,17.89,0,0,1,0-25.2,17.12,17.12,0,0,1,12.57-5.18A15.81,15.81,0,0,1,31,603.67,21.14,21.14,0,0,1,37.07,608.11Z"/><path class="cls-4" d="M70.17,628H54.93l-3.44,9.24H46.72l13-34.23h5.7l13,34.23H73.66Zm-7.65-20.38-6,16.12H68.58Z"/><path class="cls-4" d="M99.22,637.21h-9V603h7.39q5,0,7.49,1.48a9.2,9.2,0,0,1,4.41,7.81,8.67,8.67,0,0,1-3.59,6.87,8.36,8.36,0,0,1,3.85,3.31,9.52,9.52,0,0,1,1.39,5.11,8.82,8.82,0,0,1-5,8.21A14.18,14.18,0,0,1,99.22,637.21ZM94.7,607.13v10.63h3.44a9.93,9.93,0,0,0,4.41-.77,4.91,4.91,0,0,0,2.57-4.62,4.64,4.64,0,0,0-2.31-4.36,9.28,9.28,0,0,0-4.67-.88Zm0,14.58V633H99a9.93,9.93,0,0,0,4.88-.92,5,5,0,0,0,2.77-4.67,5.64,5.64,0,0,0-.69-2.72,4.78,4.78,0,0,0-1.88-2,11.46,11.46,0,0,0-5.54-1Z"/><path class="cls-4" d="M124.78,603h4.56v34.23h-4.56Z"/><path class="cls-4" d="M149.51,637.21H145V603h4.1l19.86,26.58V603h4.57v34.23h-4.11l-19.86-26.59Z"/><path class="cls-4" d="M207.15,603v4.2H193.6v10.58h12V622h-12V633h14.06v4.26H189V603Z"/><path class="cls-4" d="M240.05,603v4.2h-8.73v30h-4.57v-30h-8.67V603Z"/><path class="cls-4" d="M290.19,603v4.2H276.64v10.58h12V622h-12V633H290.7v4.26H272.07V603Z"/><path class="cls-4" d="M322.78,608.11l-3.65,2.36a10.45,10.45,0,0,0-2.79-3,6,6,0,0,0-3.31-.87,5.7,5.7,0,0,0-4,1.51,4.94,4.94,0,0,0-1.64,3.77q0,3.09,4.67,4.93l3.34,1.23q8.1,3.13,8.11,9.29a10,10,0,0,1-3.21,7.52,11,11,0,0,1-7.93,3.06,10.43,10.43,0,0,1-7.06-2.42,12.45,12.45,0,0,1-3.82-6.93l4.46-1.18a11,11,0,0,0,2.24,4.57,5.4,5.4,0,0,0,4.28,1.64,6.25,6.25,0,0,0,4.54-1.82,5.88,5.88,0,0,0,1.88-4.39,4.26,4.26,0,0,0-1.29-3.13,12.82,12.82,0,0,0-4.31-2.46l-3.18-1.23c-4.82-1.82-7.24-4.72-7.24-8.73a8.85,8.85,0,0,1,2.95-6.77,11.37,11.37,0,0,1,12.81-1.34A12.84,12.84,0,0,1,322.78,608.11Z"/><path class="cls-4" d="M355.67,603v4.2H347v30h-4.57v-30h-8.67V603Z"/><path class="cls-4" d="M367.43,603H372v34.23h-4.56Z"/><path class="cls-4" d="M392.16,637.21H387.6V603h4.61l12.17,21.65L416.54,603h4.62v34.23h-4.57V611.29l-10.26,18.42h-3.85l-10.32-18.42Z"/><path class="cls-4" d="M456.32,628H441.07l-3.44,9.24h-4.77l13-34.23h5.69l13,34.23h-4.82Zm-7.65-20.38-6,16.12h12.07Z"/><path class="cls-4" d="M492,603v4.2h-8.73v30h-4.57v-30h-8.67V603Z"/><path class="cls-4" d="M503.79,603h4.57v34.23h-4.57Z"/><path class="cls-4" d="M539.61,602.31A16.84,16.84,0,0,1,552,607.54a17.77,17.77,0,0,1,0,25.1,17.33,17.33,0,0,1-24.86,0A17.51,17.51,0,0,1,522,619.86a17.86,17.86,0,0,1,17.6-17.55Zm0,4.31a12.37,12.37,0,0,0-9.16,3.9,12.92,12.92,0,0,0-3.82,9.39,13.57,13.57,0,0,0,3.77,9.68,12.63,12.63,0,0,0,18.37,0,13.16,13.16,0,0,0,3.83-9.49,13.3,13.3,0,0,0-3.8-9.55A12.28,12.28,0,0,0,539.61,606.62Z"/><path class="cls-4" d="M575.38,637.21h-4.56V603h4.1l19.86,26.58V603h4.57v34.23h-4.1l-19.87-26.59Z"/></g></g></svg>