<svg id="Layer" xmlns="http://www.w3.org/2000/svg" viewBox="0 0 335.99 235.19"><defs><style>.cls-1{fill:#5bc5f2;opacity:0.2;}.cls-2{fill:#1961ac;}.cls-3{fill:#fefcf3;}.cls-18,.cls-4{fill:#fff;}.cls-5{fill:#e7eced;}.cls-6{fill:#8baddc;}.cls-7{fill:#f39b9b;}.cls-8{fill:#2e2868;}.cls-9{fill:#999ea3;}.cls-10{fill:#c9cccc;}.cls-11,.cls-17{fill:#69c0ac;}.cls-12{fill:#c1dfc4;}.cls-13{fill:#554596;}.cls-14{fill:#f6f8f9;}.cls-15{fill:#fad0c5;}.cls-16{fill:#79806f;}.cls-17,.cls-18{fill-rule:evenodd;}</style></defs><title>Artboard 1</title><rect class="cls-1" x="67.7" y="134.7" width="17.98" height="14.2"/><rect class="cls-1" x="118.9" y="134.7" width="17.98" height="14.2"/><rect class="cls-1" x="87.33" y="134.7" width="30.04" height="14.2"/><rect class="cls-1" x="67.7" y="153.95" width="17.98" height="14.2"/><rect class="cls-1" x="118.9" y="153.95" width="17.98" height="14.2"/><rect class="cls-1" x="87.33" y="153.95" width="30.04" height="14.2"/><rect class="cls-1" x="67.7" y="172.15" width="17.98" height="14.2"/><rect class="cls-1" x="118.9" y="172.15" width="17.98" height="14.2"/><rect class="cls-1" x="87.33" y="172.15" width="30.04" height="14.2"/><rect class="cls-1" x="67.7" y="59.06" width="17.98" height="14.2"/><rect class="cls-1" x="118.9" y="59.06" width="17.98" height="14.2"/><rect class="cls-1" x="87.33" y="59.06" width="30.04" height="14.2"/><rect class="cls-1" x="67.7" y="78.31" width="17.98" height="14.2"/><rect class="cls-1" x="118.9" y="78.31" width="17.98" height="14.2"/><rect class="cls-1" x="87.33" y="78.31" width="30.04" height="14.2"/><rect class="cls-1" x="67.7" y="96.51" width="17.98" height="14.2"/><rect class="cls-1" x="118.9" y="96.51" width="17.98" height="14.2"/><rect class="cls-1" x="87.33" y="96.51" width="30.04" height="14.2"/><rect class="cls-1" x="67.7" y="115.75" width="17.98" height="14.2"/><rect class="cls-1" x="118.9" y="115.75" width="17.98" height="14.2"/><rect class="cls-1" x="87.33" y="115.75" width="30.04" height="14.2"/><ellipse class="cls-1" cx="167.99" cy="115.27" rx="156.69" ry="92.15"/><path class="cls-1" d="M27,75.39a71.76,71.76,0,0,0-7.26,12.3H27Z"/><path class="cls-1" d="M43.75,85.83V54.74a91.27,91.27,0,0,0-15.1,14.08v17Z"/><path class="cls-1" d="M62.43,85.83V43.37a123.62,123.62,0,0,0-15.09,8.8V85.83Z"/><path class="cls-1" d="M27,90.85H18.4a70,70,0,0,0-.47,50.59H27Z"/><rect class="cls-1" x="28.65" y="89.03" width="15.09" height="51.29"/><rect class="cls-1" x="47.34" y="89.03" width="15.09" height="51.29"/><path class="cls-1" d="M19.23,144.59A72,72,0,0,0,27,158.07V144.59Z"/><path class="cls-1" d="M28.65,143.52v18.21a92.13,92.13,0,0,0,15.1,14.08V143.52Z"/><path class="cls-1" d="M47.34,143.52v34.86a123.62,123.62,0,0,0,15.09,8.8V143.52Z"/><rect class="cls-2" x="79.52" y="110.25" width="49.24" height="9.32"/><rect class="cls-3" x="123.42" y="110.25" width="2.17" height="9.32"/><rect class="cls-3" x="120.28" y="110.25" width="2.17" height="9.32"/><rect class="cls-4" x="80.4" y="100.15" width="47.66" height="9.27"/><rect class="cls-5" x="80.36" y="100.55" width="47.7" height="0.53"/><rect class="cls-5" x="80.36" y="101.55" width="47.7" height="0.53"/><rect class="cls-5" x="80.36" y="102.56" width="47.7" height="0.53"/><rect class="cls-5" x="80.36" y="103.56" width="47.7" height="0.53"/><rect class="cls-5" x="80.36" y="104.57" width="47.7" height="0.53"/><rect class="cls-5" x="80.36" y="105.57" width="47.7" height="0.53"/><rect class="cls-5" x="80.36" y="106.58" width="47.7" height="0.53"/><rect class="cls-5" x="80.36" y="107.58" width="47.7" height="0.54"/><rect class="cls-5" x="80.36" y="108.59" width="47.7" height="0.53"/><path class="cls-6" d="M128.27,108.52h-46a.89.89,0,0,1-.89-.89v-5.69a.89.89,0,0,1,.89-.89h46a.9.9,0,0,0,.9-.9h0a.9.9,0,0,0-.9-.9H80.35a.9.9,0,0,0-.9.9v9.27a.9.9,0,0,0,.9.9h47.92a.9.9,0,0,0,.9-.9h0A.9.9,0,0,0,128.27,108.52Z"/><polygon class="cls-7" points="110.05 104.09 110.05 114.41 112.78 111.62 115.52 114.2 115.52 104.09 110.05 104.09"/><rect class="cls-8" x="159.16" y="155.42" width="17.87" height="3.25"/><rect class="cls-2" x="140.03" y="85.25" width="55.93" height="70.23" rx="9.84" ry="9.84"/><rect class="cls-2" x="133.83" y="158.45" width="68.33" height="6.71" rx="3.36" ry="3.36"/><polygon class="cls-8" points="144.46 165.1 148.87 165.1 140.34 219.79 137.99 219.79 144.46 165.1"/><polygon class="cls-8" points="193.99 165.1 189.58 165.1 198.11 219.79 200.46 219.79 193.99 165.1"/><rect class="cls-9" x="59.29" y="129.36" width="209.72" height="5.42"/><rect class="cls-10" x="79.72" y="134.78" width="169.28" height="9.59"/><polygon class="cls-6" points="75.41 134.64 65.6 220.1 70.04 220.1 84.28 134.65 75.41 134.64"/><polygon class="cls-6" points="253.51 134.64 263.32 220.1 258.88 220.1 244.64 134.65 253.51 134.64"/><path class="cls-10" d="M24.28,219.89H305.63a1.25,1.25,0,0,1,0,2.5H24.28a1.25,1.25,0,1,1,0-2.5Z"/><path class="cls-10" d="M311,219.89h5.72a1.25,1.25,0,0,1,0,2.5H311a1.25,1.25,0,1,1,0-2.5Z"/><path class="cls-10" d="M19.27,219.89a1.23,1.23,0,0,1,.88.36,1.28,1.28,0,0,1,.37.9,1.25,1.25,0,0,1-.37.88,1.26,1.26,0,0,1-2.14-.88,1.32,1.32,0,0,1,.37-.9A1.29,1.29,0,0,1,19.27,219.89Z"/><path class="cls-11" d="M210.32,158.34H238a2.7,2.7,0,0,1,2.7,2.7v58.86a0,0,0,0,1,0,0H207.62a0,0,0,0,1,0,0V161A2.7,2.7,0,0,1,210.32,158.34Z"/><rect class="cls-12" x="223.67" y="161.56" width="13.69" height="25.41"/><rect class="cls-12" x="220.15" y="190.67" width="7.31" height="27.61" transform="translate(428.29 -19.33) rotate(90)"/><rect class="cls-12" x="220.15" y="199.43" width="7.31" height="27.61" transform="translate(437.04 -10.57) rotate(90)"/><circle class="cls-13" cx="211.75" cy="163.53" r="1.62"/><circle class="cls-11" cx="211.75" cy="167.91" r="1.62"/><circle class="cls-14" cx="211.75" cy="172.29" r="1.62"/><circle class="cls-9" cx="211.75" cy="176.67" r="1.62"/><circle class="cls-5" cx="211.75" cy="181.04" r="1.62"/><circle class="cls-2" cx="211.75" cy="185.42" r="1.62"/><rect class="cls-14" x="212.11" y="201.65" width="23.13" height="1.41"/><rect class="cls-14" x="212.11" y="210.72" width="23.13" height="1.41"/><path class="cls-4" d="M254.33,53.73h-81.1a6.07,6.07,0,0,0-6.07,6.06v53.56a6.06,6.06,0,0,0,6.07,6.06h81.1a6.06,6.06,0,0,0,6.07-6.06V59.79a6.07,6.07,0,0,0-6.07-6.06Z"/><path class="cls-5" d="M218.73,85.07a4.91,4.91,0,1,1-4.91-4.91A4.91,4.91,0,0,1,218.73,85.07Z"/><path class="cls-10" d="M224.79,126.7c-1.53-1.38-1.32-2.39-1.32-2.39l0-24.74H204.05l0,24.74s.21,1-1.32,2.39-3.16,2.74-3.16,2.74H228S226.32,128.07,224.79,126.7Z"/><path class="cls-11" d="M125.92,128.12v-7.3h2.69v-1.38H84.34S83,120.61,83,124.59c0,3.63,1.32,4.92,1.32,4.92h44.27v-1.39Z"/><path class="cls-4" d="M127.43,128.12H85.09s-.79-.93-.79-3.56c0-2.89.79-3.74.79-3.74h42.34a8.83,8.83,0,0,0,0,7.3Z"/><path class="cls-5" d="M86.33,127.46h40.78c0-.12-.09-.25-.13-.4H86.33Z"/><path class="cls-5" d="M86.33,126.07h40.43c0-.12,0-.26-.05-.39H86.33Z"/><path class="cls-5" d="M86.33,124.68h40.32c0-.07,0-.13,0-.21s0-.12,0-.18H86.33Z"/><path class="cls-5" d="M86.33,123.29h40.38c0-.13,0-.27.05-.39H86.33Z"/><path class="cls-5" d="M86.33,121.9H127c0-.14.08-.28.12-.39H86.33Z"/><path class="cls-7" d="M64.4,112.54v11.8a5,5,0,0,0,5,5H83.48a5,5,0,0,0,5-5v-11.8a4.36,4.36,0,0,0,0-.51H64.42C64.41,112.2,64.4,112.37,64.4,112.54Z"/><rect class="cls-15" x="63.55" y="111.75" width="25.8" height="7.15"/><path class="cls-16" d="M72.65,103.39l.14.32Z"/><path class="cls-16" d="M74.34,106.77l0,.06Z"/><path class="cls-16" d="M73.5,105.22v0Z"/><path class="cls-11" d="M87.94,101.77A22.91,22.91,0,0,0,82.1,91.66a24.52,24.52,0,0,1-1,10.11,32.23,32.23,0,0,1-4.54,8.43A32.23,32.23,0,0,1,72,101.77a24.52,24.52,0,0,1-1-10.11,22.91,22.91,0,0,0-5.84,10.11,11.1,11.1,0,0,0,2.52,10.12H85.42A11.1,11.1,0,0,0,87.94,101.77Z"/><path class="cls-12" d="M76.58,110.2A39.5,39.5,0,0,0,80.65,103l-4-11.64L72.5,103A34.43,34.43,0,0,0,76.58,110.2Z"/><polygon class="cls-9" points="121.59 185.01 122.12 177.23 104.09 177.05 104.09 177.05 103.88 177.05 103.66 177.05 103.66 177.05 85.64 177.23 86.16 185.01 121.59 185.01"/><polygon class="cls-9" points="88.02 212.34 88.53 219.94 103.66 219.94 104.09 219.94 119.22 219.94 119.74 212.34 88.02 212.34"/><path class="cls-10" d="M86.15,184.79,88,212.34h31.74l1.86-27.55ZM118,211.23h-.28l-1.9-3.77,2-4.05,1.2,2.38-.26,3.85Zm-5.89,0-1.9-3.77,2-4.05,2,4.05-1.9,3.77Zm-5.62,0-1.9-3.77,2-4.05,2,4.05-1.9,3.77Zm-5.61,0L99,207.46l2-4.05,2,4.05-1.9,3.77Zm-5.61,0-1.9-3.77,2-4.05,2,4.05-1.9,3.77Zm-5.62,0L89,209.8l-.28-4.12,1.14-2.27,2,4.05L90,211.23Zm2.18-14.91-2,4-1.73-3.44L88,195.85l1.81-3.58Zm-1.27-5.58,2-4,2,4.05-2,4Zm2,7.1,2,4-2,4-2-4Zm.77-1.52,2-4,2,4-2,4Zm2.8-5.57,2-4.05,2,4-2,4Zm2,7.09,2,4-2,4-2-4Zm.77-1.52,2-4,2,4-2,4Zm2.81-5.58,2-4,2,4.05-2,4Zm2,7.1,2,4-2,4-2-4Zm.76-1.52,2-4,2,4-2,4Zm2.81-5.57,2-4.05,2,4-2,4Zm2,7.09,2,4-2,4-2-4Zm.77-1.52,2-4,2,4-2,4Zm4.84,1.52,2,4-2,4-2-4Zm-2-7.1,2-4,2,4.05-2,4Zm3.17-4.84h3.35l-1.67,3.32Zm-3.93,3.32-1.68-3.32H114Zm-5.62,0L105,185.9h3.35Zm-5.61,0-1.68-3.32h3.35Zm-5.61,0-1.68-3.32h3.35Zm-5.62,0-1.67-3.32H91.5Zm-.77,1.52-1.22,2.43-.38-5.6Zm0,11.15L88.5,203l-.17-2.55ZM92.63,209l1.13,2.25H91.49Zm5.61,0,1.14,2.25H97.11Zm5.61,0,1.14,2.25h-2.27Zm5.62,0,1.13,2.25h-2.27Zm5.61,0,1.14,2.25H114Zm3.58-7.09.8-1.6-.19,2.82Zm1-5.12-1.81,3.59-2-4,2-4,1.86,3.7Zm-1-6,1.67-3.33-.39,5.87Z"/><rect class="cls-9" x="167.98" y="10.59" width="1.01" height="31.25"/><path class="cls-8" d="M201.84,68.32a33.37,33.37,0,0,0-65.28,0Z"/><path class="cls-4" d="M170.3,44.12a27.19,27.19,0,0,0-3,.17,27.13,27.13,0,0,1,23.4,21.43h6A27.06,27.06,0,0,0,170.3,44.12Z"/><path class="cls-1" d="M274.84,44.54V188c20.35-9.93,34-23.12,41.81-38.32V146h1.74q.87-2,1.62-4h-3.36v-8.77h6c.31-1.32.59-2.65.82-4h-6.83v-8.78h7.87q.12-2,.15-4h-8v-8.77h7.62c-.15-1.34-.33-2.67-.55-4h-7.07V95h5q-.63-2-1.38-4h-3.58V83.08a75.12,75.12,0,0,0-3.91-6.5V78.2H304V69.42h3.35a89.94,89.94,0,0,0-7.26-7.54v3.55h-8.77V56.66h2.64q-3.12-2.44-6.55-4.75v.76H278.6V46.55C277.37,45.87,276.12,45.2,274.84,44.54ZM304,82.19h8.77V91H304ZM304,95h8.77v8.77H304Zm0,12.76h8.77v8.77H304Zm0,12.76h8.77v8.78H304Zm0,12.77h8.77V142H304ZM304,146h8.77v8.77H304ZM291.29,69.42h8.77V78.2h-8.77Zm0,12.77h8.77V91h-8.77Zm0,12.76h8.77v8.77h-8.77Zm0,12.76h8.77v8.77h-8.77Zm0,12.76h8.77v8.78h-8.77Zm0,12.77h8.77V142h-8.77Zm0,12.76h8.77v8.77h-8.77Zm-3.91,8.77H278.6V146h8.78Zm0-12.76H278.6v-8.77h8.78Zm0-12.76H278.6v-8.78h8.78Zm0-12.77H278.6v-8.77h8.78Zm0-12.76H278.6V95h8.78Zm0-12.76H278.6V82.19h8.78Zm0-12.76H278.6V69.42h8.78Zm0-21.54v8.77H278.6V56.66Z"/><g id="background"><g id="lines"><path class="cls-5" d="M193.7,219.76H144.43a.5.5,0,0,1-.51-.5v-5a.5.5,0,0,1,.51-.5H193.7a.5.5,0,0,1,.51.5v5A.5.5,0,0,1,193.7,219.76Z"/><path class="cls-10" d="M188.93,213.73a4.25,4.25,0,0,0-8.45,0Z"/></g></g><polygon class="cls-7" points="266.12 173.2 303.97 173.2 296.2 219.94 274.04 219.94 266.12 173.2"/><polygon class="cls-15" points="301.19 189.92 302.45 182.35 267.67 182.35 268.96 189.92 301.19 189.92"/><path class="cls-17" d="M295.37,173.38V120.55a9.32,9.32,0,0,0-9.29-9.29h-1.82a9.32,9.32,0,0,0-9.29,9.29v52.83Z"/><path class="cls-18" d="M285.19,143.82a.38.38,0,0,1,.15,0l.52-2.2-.23,2.25.13.06,1.54-1.64L286,144.11a.83.83,0,0,1,.08.12l2.16-.65-2.06.93a.66.66,0,0,1,0,.14l2.19.52-2.24-.23a.54.54,0,0,1-.07.13l1.64,1.55-1.83-1.33-.12.09.65,2.15-.92-2.06-.15,0-.51,2.19.23-2.25-.14-.06L283.36,147l1.32-1.83a.83.83,0,0,1-.08-.12l-2.16.65,2.06-.93a.66.66,0,0,1,0-.14l-2.19-.52,2.25.23a.31.31,0,0,1,.06-.13L283,142.67,284.8,144l.12-.09-.65-2.15Z"/><path class="cls-18" d="M285.19,162.51h.15l.52-2.19-.23,2.25.13.06L287.3,161,286,162.81a.83.83,0,0,1,.08.12l2.16-.65-2.06.93a.61.61,0,0,1,0,.14l2.19.52-2.24-.23a.83.83,0,0,1-.07.13l1.64,1.54L285.86,164a.36.36,0,0,1-.12.08l.65,2.16-.92-2.06h-.15l-.51,2.2.23-2.25-.14-.06-1.54,1.64,1.32-1.83a.83.83,0,0,1-.08-.12l-2.16.64,2.06-.92a.71.71,0,0,1,0-.14l-2.19-.52,2.25.23a.31.31,0,0,1,.06-.13L283,161.37l1.83,1.32.12-.08-.65-2.16Z"/><path class="cls-18" d="M285.19,153.26h.15l.52-2.19-.23,2.24.13.07,1.54-1.64L286,153.56a.36.36,0,0,1,.08.12l2.16-.65-2.06.92a.76.76,0,0,1,0,.15l2.19.51-2.24-.22-.07.13,1.64,1.54-1.83-1.32a.36.36,0,0,1-.12.08l.65,2.16-.92-2.06h-.15l-.51,2.19.23-2.24-.14-.07-1.54,1.64,1.32-1.83a.36.36,0,0,1-.08-.12l-2.16.65,2.06-.92a.76.76,0,0,1,0-.15l-2.19-.52,2.25.23a.38.38,0,0,1,.06-.13L283,152.12l1.83,1.32.12-.08-.65-2.16Z"/><path class="cls-18" d="M278.15,148.34h.14l.52-2.19-.23,2.24.13.06,1.54-1.64-1.32,1.83a.83.83,0,0,1,.08.12l2.16-.64-2.06.92a.76.76,0,0,1,0,.15l2.2.51-2.25-.23-.06.13,1.64,1.55-1.83-1.32-.12.08.64,2.16-.92-2.06h-.14l-.52,2.19L278,150a.31.31,0,0,1-.13-.06l-1.55,1.64,1.32-1.83-.08-.12-2.16.65,2.06-.93s0-.09,0-.14l-2.19-.52,2.25.23a.38.38,0,0,1,.06-.13l-1.64-1.54,1.83,1.32.12-.08-.65-2.16Z"/><path class="cls-18" d="M278.15,167h.14l.52-2.2-.23,2.25.13.06,1.54-1.64-1.32,1.83a.83.83,0,0,1,.08.12l2.16-.65-2.06.93a.71.71,0,0,1,0,.14l2.2.52-2.25-.23-.06.13,1.64,1.55-1.83-1.33-.12.09.64,2.15-.92-2.06-.14,0-.52,2.19.23-2.25-.13-.06-1.55,1.64,1.32-1.83-.08-.12-2.16.65,2.06-.93c0-.05,0-.09,0-.14l-2.19-.52,2.25.23a.31.31,0,0,1,.06-.13l-1.64-1.55,1.83,1.33.12-.09-.65-2.15Z"/><path class="cls-18" d="M278.15,157.78h.14l.52-2.19-.23,2.25a.38.38,0,0,1,.13.06l1.54-1.64-1.32,1.83a.83.83,0,0,1,.08.12l2.16-.65-2.06.92a.76.76,0,0,1,0,.15l2.2.52-2.25-.23L279,159l1.64,1.54-1.83-1.32-.12.08.64,2.16-.92-2.06h-.14l-.52,2.19.23-2.24-.13-.06L276.31,161l1.32-1.83-.08-.12-2.16.64,2.06-.92c0-.05,0-.1,0-.15l-2.19-.51,2.25.23a.31.31,0,0,1,.06-.13l-1.64-1.55,1.83,1.32.12-.08-.65-2.16Z"/><path class="cls-18" d="M291.86,148.34H292l.52-2.19-.23,2.24.13.06L294,146.8l-1.32,1.83.08.12,2.16-.64-2.06.92a.76.76,0,0,1,0,.15l2.19.51-2.24-.23a.54.54,0,0,1-.07.13l1.64,1.55-1.83-1.32a.62.62,0,0,1-.12.08l.65,2.16-.92-2.06H292l-.52,2.19.23-2.25-.13-.06L290,151.53l1.32-1.83-.08-.12-2.16.65,2.06-.93a.61.61,0,0,1,0-.14l-2.19-.52,2.24.23a.83.83,0,0,1,.07-.13l-1.64-1.54,1.83,1.32a.36.36,0,0,1,.12-.08l-.65-2.16Z"/><path class="cls-18" d="M291.86,167H292l.52-2.2-.23,2.25.13.06L294,165.5l-1.32,1.83.08.12,2.16-.65-2.06.93a.71.71,0,0,1,0,.14l2.19.52-2.24-.23a.54.54,0,0,1-.07.13l1.64,1.55-1.83-1.33a.38.38,0,0,1-.12.09l.65,2.15-.92-2.06-.15,0-.52,2.19.23-2.25-.13-.06L290,170.23l1.32-1.83-.08-.12-2.16.65,2.06-.93a.66.66,0,0,1,0-.14l-2.19-.52,2.24.23a.54.54,0,0,1,.07-.13l-1.64-1.55,1.83,1.33.12-.09-.65-2.15Z"/><path class="cls-18" d="M291.86,157.78H292l.52-2.19-.23,2.25.13.06,1.54-1.64-1.32,1.83.08.12,2.16-.65-2.06.92a.76.76,0,0,1,0,.15l2.19.52-2.24-.23a.83.83,0,0,1-.07.13l1.64,1.54-1.83-1.32a.36.36,0,0,1-.12.08l.65,2.16-.92-2.06H292l-.52,2.19.23-2.24-.13-.06L290,161l1.32-1.83-.08-.12-2.16.64,2.06-.92a.76.76,0,0,1,0-.15l-2.19-.51,2.24.23a.54.54,0,0,1,.07-.13l-1.64-1.55,1.83,1.32a.36.36,0,0,1,.12-.08l-.65-2.16Z"/><path class="cls-18" d="M285.19,116.11a.38.38,0,0,1,.15,0l.52-2.2-.23,2.25.13.06,1.54-1.64L286,116.4a.83.83,0,0,1,.08.12l2.16-.65-2.06.93a.71.71,0,0,1,0,.14l2.19.52-2.24-.23a.54.54,0,0,1-.07.13l1.64,1.55-1.83-1.33-.12.09.65,2.15-.92-2.06-.15,0-.51,2.19.23-2.25-.14-.06-1.54,1.64,1.32-1.83a.83.83,0,0,1-.08-.12l-2.16.65,2.06-.93a.66.66,0,0,1,0-.14l-2.19-.52,2.25.23a.31.31,0,0,1,.06-.13L283,115l1.83,1.33.12-.09-.65-2.15Z"/><path class="cls-18" d="M285.19,134.8h.15l.52-2.19-.23,2.25.13.06,1.54-1.64L286,135.1a.83.83,0,0,1,.08.12l2.16-.65-2.06.93a.61.61,0,0,1,0,.14l2.19.52-2.24-.23a.83.83,0,0,1-.07.13l1.64,1.54-1.83-1.32a.36.36,0,0,1-.12.08l.65,2.16-.92-2.06h-.15l-.51,2.2.23-2.25-.14-.06L283.36,138l1.32-1.83a.83.83,0,0,1-.08-.12l-2.16.64,2.06-.92a.71.71,0,0,1,0-.14l-2.19-.52,2.25.23a.31.31,0,0,1,.06-.13L283,133.66,284.8,135l.12-.08-.65-2.16Z"/><path class="cls-18" d="M285.19,125.55h.15l.52-2.19-.23,2.24.13.07L287.3,124,286,125.85a.36.36,0,0,1,.08.12l2.16-.65-2.06.92a.76.76,0,0,1,0,.15l2.19.52-2.24-.23-.07.13,1.64,1.54L285.86,127a.36.36,0,0,1-.12.08l.65,2.16-.92-2.06h-.15l-.51,2.19.23-2.24-.14-.07-1.54,1.64,1.32-1.83a.36.36,0,0,1-.08-.12l-2.16.65,2.06-.92a.76.76,0,0,1,0-.15l-2.19-.52,2.25.23a.49.49,0,0,1,.06-.13L283,124.41l1.83,1.32.12-.08-.65-2.16Z"/><path class="cls-18" d="M278.15,120.63h.14l.52-2.19-.23,2.24.13.06,1.54-1.64-1.32,1.83a.83.83,0,0,1,.08.12l2.16-.64-2.06.92a.76.76,0,0,1,0,.15l2.2.51-2.25-.23-.06.13,1.64,1.55-1.83-1.32-.12.08.64,2.16-.92-2.06h-.14l-.52,2.19.23-2.25a.31.31,0,0,1-.13-.06l-1.55,1.64,1.32-1.83-.08-.12-2.16.65,2.06-.93s0-.09,0-.14l-2.19-.52,2.25.23a.38.38,0,0,1,.06-.13l-1.64-1.54,1.83,1.32.12-.08-.65-2.16Z"/><path class="cls-18" d="M278.15,139.33h.14l.52-2.2-.23,2.25.13.06,1.54-1.64-1.32,1.83a.83.83,0,0,1,.08.12l2.16-.65-2.06.93a.71.71,0,0,1,0,.14l2.2.52-2.25-.23-.06.13,1.64,1.55-1.83-1.33-.12.09.64,2.15-.92-2.06-.14,0-.52,2.19.23-2.25-.13-.06-1.55,1.64,1.32-1.83-.08-.12-2.16.65,2.06-.93s0-.09,0-.14l-2.19-.52,2.25.23a.31.31,0,0,1,.06-.13l-1.64-1.55,1.83,1.33.12-.09-.65-2.15Z"/><path class="cls-18" d="M278.15,130.07h.14l.52-2.19-.23,2.25a.38.38,0,0,1,.13.06l1.54-1.64-1.32,1.83a.83.83,0,0,1,.08.12l2.16-.65-2.06.93a.61.61,0,0,1,0,.14l2.2.52-2.25-.23-.06.13,1.64,1.54-1.83-1.32-.12.08.64,2.16-.92-2.06h-.14l-.52,2.19.23-2.24-.13-.06-1.55,1.64,1.32-1.83-.08-.12-2.16.64,2.06-.92s0-.1,0-.15l-2.19-.51,2.25.23a.31.31,0,0,1,.06-.13l-1.64-1.55,1.83,1.32.12-.08-.65-2.16Z"/><path class="cls-18" d="M291.86,120.63H292l.52-2.19-.23,2.24.13.06,1.54-1.64-1.32,1.83.08.12,2.16-.64-2.06.92a.76.76,0,0,1,0,.15L295,122l-2.24-.23a.54.54,0,0,1-.07.13l1.64,1.55-1.83-1.32a.62.62,0,0,1-.12.08l.65,2.16-.92-2.06H292l-.52,2.19.23-2.25-.13-.06L290,123.82l1.32-1.83-.08-.12-2.16.65,2.06-.93a.61.61,0,0,1,0-.14l-2.19-.52,2.24.23a.83.83,0,0,1,.07-.13l-1.64-1.54,1.83,1.32a.36.36,0,0,1,.12-.08l-.65-2.16Z"/><path class="cls-18" d="M291.86,139.33H292l.52-2.2-.23,2.25.13.06,1.54-1.64-1.32,1.83.08.12,2.16-.65-2.06.93a.71.71,0,0,1,0,.14l2.19.52-2.24-.23a.54.54,0,0,1-.07.13l1.64,1.55-1.83-1.33a.38.38,0,0,1-.12.09l.65,2.15-.92-2.06-.15,0-.52,2.19.23-2.25-.13-.06L290,142.52l1.32-1.83-.08-.12-2.16.65,2.06-.93a.66.66,0,0,1,0-.14l-2.19-.52,2.24.23a.54.54,0,0,1,.07-.13l-1.64-1.55,1.83,1.33.12-.09-.65-2.15Z"/><path class="cls-18" d="M291.86,130.07H292l.52-2.19-.23,2.25.13.06,1.54-1.64-1.32,1.83.08.12,2.16-.65-2.06.93a.61.61,0,0,1,0,.14l2.19.52-2.24-.23a.83.83,0,0,1-.07.13l1.64,1.54-1.83-1.32a.36.36,0,0,1-.12.08l.65,2.16-.92-2.06H292l-.52,2.19.23-2.24-.13-.06L290,133.27l1.32-1.83-.08-.12-2.16.64,2.06-.92a.76.76,0,0,1,0-.15l-2.19-.51,2.24.23a.54.54,0,0,1,.07-.13l-1.64-1.55,1.83,1.32a.62.62,0,0,1,.12-.08l-.65-2.16Z"/></svg>