<svg xmlns="http://www.w3.org/2000/svg" viewBox="0 0 1336.89 408.94"><defs><style>.cls-1{fill:#04bc8c;}.cls-2{fill:#fdca40;}.cls-3{fill:#fff;}</style></defs><title>H on DarkP</title><g id="Layer_2" data-name="Layer 2"><g id="Layer_1-2" data-name="Layer 1"><polygon class="cls-1" points="235.7 135.19 235.7 247.67 0 247.67 0 0 118.21 0 118.21 135.19 235.7 135.19"/><rect class="cls-2" y="279.4" width="85.05" height="129.54"/><polygon class="cls-3" points="389.3 0 389.3 408.93 116.2 408.93 116.2 279.4 266.85 279.4 266.85 103.46 149.35 103.46 149.35 0 389.3 0"/><path class="cls-3" d="M634.39,73.58V194.37q0,28-15.79,43.22T576,252.75q-28,0-45-15.92T514.1,191.59h43q0,11.13,4.55,16.81t13.14,5.69q7.83,0,12.13-5.06t4.3-14.66V73.58Z"/><path class="cls-3" d="M712.47,73.58V251H669.26V73.58Z"/><path class="cls-3" d="M861.56,129.68a32.37,32.37,0,0,0-13.77-13.52q-9-4.66-21.1-4.67-21,0-33.61,13.77T780.45,162q0,24.51,13.26,38.28t36.52,13.78q15.91,0,26.91-8.09t16.05-23.25H818.35V150.91h94v40.18a84.79,84.79,0,0,1-16.3,30.07,85.93,85.93,0,0,1-29.19,22.49q-17.68,8.59-39.93,8.59-26.28,0-46.87-11.49a82,82,0,0,1-32.1-32Q736.48,188.31,736.48,162T748,115.15a82,82,0,0,1,32-32.09q20.47-11.49,46.75-11.5,31.84,0,53.7,15.42t28.94,42.7Z"/><path class="cls-3" d="M1068.53,175.3a43.42,43.42,0,0,1,9.35,27.41q0,22.24-15.54,35.26T1019,251H936.36V73.58h79.86q27,0,42.32,12.39t15.29,33.6q0,15.68-8.21,26A42.51,42.51,0,0,1,1043.76,160,41.29,41.29,0,0,1,1068.53,175.3Zm-88.95-30h28.3q10.61,0,16.3-4.68t5.68-13.77q0-9.09-5.68-13.89t-16.3-4.81h-28.3Zm48.64,65.83q5.94-4.94,5.94-14.28T1028,182.25q-6.19-5.31-17.06-5.31H979.58v39.17h31.84Q1022.28,216.11,1028.22,211.18Z"/><path class="cls-3" d="M1146.1,73.58V251h-43.21V73.58Z"/><path class="cls-3" d="M1292.92,84.7a79.49,79.49,0,0,1,32.47,31.21q11.5,20.09,11.5,46.37,0,26-11.5,46.25a79,79,0,0,1-32.59,31.33Q1271.7,251,1243.9,251h-66.46V73.58h66.46Q1271.95,73.58,1292.92,84.7Zm-13.64,115.49q13.63-13.4,13.64-37.91t-13.64-38.16q-13.65-13.64-38.16-13.64h-20.47v103.1h20.47Q1265.63,213.58,1279.28,200.19Z"/><path class="cls-3" d="M553.63,314.2l-4.3,4.16a21.93,21.93,0,0,0-6.16-4.75,15.7,15.7,0,0,0-6.79-1.42,16.78,16.78,0,0,0-12.57,5.27,18.89,18.89,0,0,0,0,25.83,16.84,16.84,0,0,0,12.54,5.27,15.7,15.7,0,0,0,6.79-1.42,23.61,23.61,0,0,0,6.37-4.89l4.3,4.23a29,29,0,0,1-8.25,6,21.64,21.64,0,0,1-9.07,1.87,24,24,0,1,1-.07-48,21.49,21.49,0,0,1,9,1.83A28.8,28.8,0,0,1,553.63,314.2Z"/><path class="cls-3" d="M598.3,341H577.73l-4.64,12.46h-6.44l17.59-46.19h7.69l17.59,46.19H603ZM588,313.51l-8.1,21.75h16.27Z"/><path class="cls-3" d="M637.5,353.47H625.31V307.28h10q6.72,0,10.11,2a12,12,0,0,1,4.33,4.47,12.19,12.19,0,0,1,1.63,6.06q0,5.34-4.85,9.28a11.22,11.22,0,0,1,5.19,4.47,12.78,12.78,0,0,1,1.87,6.89q0,7.41-6.71,11.09Q643.4,353.48,637.5,353.47Zm-6.09-40.58v14.33h4.64a13.29,13.29,0,0,0,6-1,6.6,6.6,0,0,0,3.46-6.23,6.28,6.28,0,0,0-3.12-5.89q-1.94-1.17-6.3-1.17Zm0,19.67V347.8h5.75q4.5,0,6.58-1.25a6.78,6.78,0,0,0,3.74-6.3,7.58,7.58,0,0,0-.94-3.68,6.46,6.46,0,0,0-2.52-2.63q-2.43-1.38-7.48-1.38Z"/><path class="cls-3" d="M672,307.28h6.16v46.19H672Z"/><path class="cls-3" d="M705.38,353.47h-6.16V307.28h5.54l26.8,35.87V307.28h6.17v46.19h-5.54L705.38,317.6Z"/><path class="cls-3" d="M783.17,307.28V313H764.88v14.26h16.21V333H764.88v14.76h19v5.74H758.71V307.28Z"/><path class="cls-3" d="M827.56,307.28V313H815.79v40.51h-6.17V313h-11.7v-5.68Z"/><path class="cls-3" d="M895.23,307.28V313H877v14.26h16.2V333H877v14.76h19v5.74H870.78V307.28Z"/><path class="cls-3" d="M939.21,314.2l-4.91,3.19a14.12,14.12,0,0,0-3.78-4.09,8.13,8.13,0,0,0-4.47-1.18,7.7,7.7,0,0,0-5.4,2.05,6.62,6.62,0,0,0-2.21,5.09q0,4.15,6.3,6.65l4.5,1.66q10.95,4.23,10.94,12.54a13.46,13.46,0,0,1-4.32,10.14,14.94,14.94,0,0,1-10.71,4.13,14.07,14.07,0,0,1-9.52-3.26,16.8,16.8,0,0,1-5.16-9.35l6-1.59a14.73,14.73,0,0,0,3,6.16,7.33,7.33,0,0,0,5.78,2.22,8.46,8.46,0,0,0,6.13-2.46,7.94,7.94,0,0,0,2.53-5.92,5.77,5.77,0,0,0-1.73-4.23,17.27,17.27,0,0,0-5.82-3.32L922.11,331q-9.76-3.66-9.77-11.77a11.92,11.92,0,0,1,4-9.14,14.11,14.11,0,0,1,9.94-3.67,13.93,13.93,0,0,1,7.34,1.87A17,17,0,0,1,939.21,314.2Z"/><path class="cls-3" d="M983.61,307.28V313H971.84v40.51h-6.17V313H954v-5.68Z"/><path class="cls-3" d="M999.47,307.28h6.17v46.19h-6.17Z"/><path class="cls-3" d="M1032.86,353.47h-6.17V307.28h6.24l16.41,29.23,16.42-29.23H1072v46.19h-6.16v-35L1052,343.36h-5.19l-13.92-24.86Z"/><path class="cls-3" d="M1119.44,341h-20.57l-4.64,12.46h-6.45l17.6-46.19h7.69l17.59,46.19h-6.51Zm-10.32-27.5L1101,335.26h16.28Z"/><path class="cls-3" d="M1167.65,307.28V313h-11.78v40.51h-6.16V313H1138v-5.68Z"/><path class="cls-3" d="M1183.51,307.28h6.16v46.19h-6.16Z"/><path class="cls-3" d="M1231.85,306.38a22.74,22.74,0,0,1,16.76,7.06,24,24,0,0,1,0,33.87,23.4,23.4,0,0,1-33.55,0,23.7,23.7,0,0,1-7-17.22,24.13,24.13,0,0,1,23.76-23.68Zm0,5.81a16.7,16.7,0,0,0-12.36,5.27,17.44,17.44,0,0,0-5.16,12.67,18.29,18.29,0,0,0,5.09,13.06,17,17,0,0,0,24.8,0,18.61,18.61,0,0,0,0-25.69A16.56,16.56,0,0,0,1231.85,312.19Z"/><path class="cls-3" d="M1280.13,353.47H1274V307.28h5.54l26.81,35.87V307.28h6.16v46.19h-5.54l-26.8-35.87Z"/></g></g></svg>