<svg xmlns="http://www.w3.org/2000/svg" viewBox="0 0 1238.66 378.89"><defs><style>.cls-1{fill:#04bc8c;}.cls-2{fill:#fdca40;}.cls-3{fill:#6f64e7;}.cls-4{fill:#27073a;}</style></defs><title>H on White</title><g id="Layer_2" data-name="Layer 2"><g id="Layer_1-2" data-name="Layer 1"><polygon class="cls-1" points="218.38 125.26 218.38 229.47 0 229.47 0 0 109.52 0 109.52 125.26 218.38 125.26"/><rect class="cls-2" y="258.87" width="78.8" height="120.02"/><polygon class="cls-3" points="360.7 0 360.7 378.88 107.66 378.88 107.66 258.88 247.25 258.88 247.25 95.86 138.38 95.86 138.38 0 360.7 0"/><path class="cls-4" d="M587.78,68.17V180.09q0,26-14.64,40t-39.45,14.05q-26,0-41.68-14.76t-15.68-41.91h39.8q0,10.31,4.21,15.57t12.18,5.27q7.26,0,11.24-4.68t4-13.58V68.17Z"/><path class="cls-4" d="M660.12,68.17V232.54h-40V68.17Z"/><path class="cls-4" d="M798.26,120.15a30,30,0,0,0-12.76-12.52A41.73,41.73,0,0,0,766,103.29q-19.44,0-31.14,12.76T723.1,150.12q0,22.71,12.29,35.47t33.84,12.76q14.74,0,24.93-7.49T809,169.32H758.22v-29.5h87.1v37.23a78.58,78.58,0,0,1-15.1,27.86,79.91,79.91,0,0,1-27,20.84q-16.39,8-37,8-24.34,0-43.43-10.66A75.85,75.85,0,0,1,693,193.44q-10.66-19-10.66-43.32T693,106.69A75.94,75.94,0,0,1,722.63,77Q741.61,66.3,766,66.3q29.5,0,49.75,14.28t26.81,39.57Z"/><path class="cls-4" d="M990,162.41a40.23,40.23,0,0,1,8.67,25.41q0,20.6-14.4,32.66t-40.16,12.06H867.56V68.17h74q25.05,0,39.21,11.48t14.17,31.14q0,14.52-7.61,24.11a39.35,39.35,0,0,1-20.25,13.35A38.22,38.22,0,0,1,990,162.41ZM907.6,134.67h26.22q9.84,0,15.1-4.33t5.27-12.76q0-8.43-5.27-12.88t-15.1-4.45H907.6Zm45.07,61q5.51-4.56,5.5-13.23t-5.74-13.58q-5.73-4.92-15.8-4.91h-29v36.29h29.5Q947.17,200.23,952.67,195.66Z"/><path class="cls-4" d="M1061.89,68.17V232.54h-40V68.17Z"/><path class="cls-4" d="M1197.92,78.48A73.62,73.62,0,0,1,1228,107.39q10.65,18.61,10.65,43,0,24.12-10.65,42.85a73.2,73.2,0,0,1-30.2,29q-19.56,10.31-45.31,10.31h-61.58V68.17h61.58Q1178.49,68.17,1197.92,78.48Zm-12.64,107q12.65-12.42,12.64-35.13T1185.28,115q-12.65-12.65-35.35-12.64h-19v95.52h19Q1172.63,197.88,1185.28,185.48Z"/><path class="cls-4" d="M513,291.11,509,295a20.4,20.4,0,0,0-5.71-4.39,14.42,14.42,0,0,0-6.29-1.32,15.58,15.58,0,0,0-11.65,4.88,17.5,17.5,0,0,0,0,23.94A15.6,15.6,0,0,0,497,322.94a14.41,14.41,0,0,0,6.29-1.31,21.73,21.73,0,0,0,5.9-4.53l4,3.92a26.65,26.65,0,0,1-7.64,5.58,19.85,19.85,0,0,1-8.4,1.74,22.24,22.24,0,1,1-.07-44.48,20,20,0,0,1,8.35,1.7A27,27,0,0,1,513,291.11Z"/><path class="cls-4" d="M554.34,316H535.28L531,327.5h-6l16.3-42.8h7.13l16.3,42.8h-6Zm-9.56-25.48-7.51,20.15h15.08Z"/><path class="cls-4" d="M590.66,327.5H579.37V284.7h9.24q6.23,0,9.37,1.86a10.93,10.93,0,0,1,4,4.14,11.25,11.25,0,0,1,1.51,5.61q0,4.95-4.49,8.6a10.51,10.51,0,0,1,4.81,4.14,11.9,11.9,0,0,1,1.73,6.39,11,11,0,0,1-6.22,10.26A17.75,17.75,0,0,1,590.66,327.5ZM585,289.89v13.29h4.3a12.4,12.4,0,0,0,5.51-1,6.14,6.14,0,0,0,3.21-5.78,5.81,5.81,0,0,0-2.88-5.45q-1.8-1.1-5.84-1.1Zm0,18.23v14.12h5.32c2.78,0,4.82-.39,6.1-1.16a6.26,6.26,0,0,0,3.46-5.84,7,7,0,0,0-.86-3.4,6.05,6.05,0,0,0-2.34-2.44q-2.25-1.27-6.94-1.28Z"/><path class="cls-4" d="M622.62,284.7h5.71v42.8h-5.71Z"/><path class="cls-4" d="M653.55,327.5h-5.71V284.7H653l24.84,33.24V284.7h5.71v42.8h-5.13l-24.84-33.24Z"/><path class="cls-4" d="M725.62,284.7V290H708.68v13.22h15v5.33h-15v13.66h17.58v5.33H703V284.7Z"/><path class="cls-4" d="M766.76,284.7V290H755.84V327.5h-5.71V290H739.29V284.7Z"/><path class="cls-4" d="M829.45,284.7V290H812.51v13.22h15v5.33h-15v13.66h17.58v5.33H806.8V284.7Z"/><path class="cls-4" d="M870.2,291.11l-4.55,3a13.09,13.09,0,0,0-3.5-3.79,7.47,7.47,0,0,0-4.14-1.09,7.09,7.09,0,0,0-5,1.89A6.16,6.16,0,0,0,851,295.8q0,3.85,5.84,6.16L861,303.5q10.14,3.92,10.14,11.62a12.49,12.49,0,0,1-4,9.4,13.84,13.84,0,0,1-9.91,3.82,13.05,13.05,0,0,1-8.83-3,15.64,15.64,0,0,1-4.78-8.66l5.59-1.48a13.68,13.68,0,0,0,2.79,5.71,6.78,6.78,0,0,0,5.35,2.05,7.82,7.82,0,0,0,5.68-2.27,7.36,7.36,0,0,0,2.35-5.49,5.34,5.34,0,0,0-1.61-3.92,16.15,16.15,0,0,0-5.39-3.08l-4-1.54q-9-3.39-9.05-10.91a11.06,11.06,0,0,1,3.69-8.47,13.1,13.1,0,0,1,9.21-3.4A13,13,0,0,1,865,285.6,15.85,15.85,0,0,1,870.2,291.11Z"/><path class="cls-4" d="M911.34,284.7V290H900.43V327.5h-5.71V290H883.87V284.7Z"/><path class="cls-4" d="M926,284.7h5.71v42.8H926Z"/><path class="cls-4" d="M957,327.5h-5.71V284.7H957l15.21,27.08,15.21-27.08h5.77v42.8h-5.71V295.09l-12.83,23h-4.81l-12.9-23Z"/><path class="cls-4" d="M1037.18,316h-19.06l-4.29,11.55h-6l16.3-42.8h7.12l16.3,42.8h-6Zm-9.56-25.48-7.51,20.15h15.09Z"/><path class="cls-4" d="M1081.85,284.7V290h-10.91V327.5h-5.71V290h-10.85V284.7Z"/><path class="cls-4" d="M1096.55,284.7h5.71v42.8h-5.71Z"/><path class="cls-4" d="M1141.34,283.86a21.07,21.07,0,0,1,15.53,6.55,22.24,22.24,0,0,1,0,31.38,21.69,21.69,0,0,1-31.09,0,21.94,21.94,0,0,1-6.45-15.95,22.36,22.36,0,0,1,22-21.95Zm0,5.39a15.5,15.5,0,0,0-11.46,4.88,16.2,16.2,0,0,0-4.78,11.74,17,17,0,0,0,4.72,12.1,15.8,15.8,0,0,0,23,0,16.48,16.48,0,0,0,4.78-11.87,16.65,16.65,0,0,0-4.75-11.94A15.38,15.38,0,0,0,1141.34,289.25Z"/><path class="cls-4" d="M1186.07,327.5h-5.71V284.7h5.13l24.84,33.24V284.7H1216v42.8h-5.14l-24.83-33.24Z"/></g></g></svg>